<svg width="60" height="60" viewBox="0 0 60 60" fill="none" xmlns="http://www.w3.org/2000/svg">
<rect width="60" height="60" fill="#24292D"/>
<path d="M59.1075 12.3425C57.02 13.2675 54.7775 13.8925 52.42 14.175C54.8525 12.7195 56.6724 10.4286 57.54 7.72998C55.2546 9.08745 52.7534 10.043 50.145 10.555C48.391 8.68214 46.0677 7.44079 43.5358 7.02366C41.004 6.60653 38.4053 7.03696 36.1431 8.24811C33.881 9.45926 32.082 11.3834 31.0254 13.7217C29.9689 16.0601 29.7139 18.6819 30.3 21.18C25.6692 20.9475 21.1391 19.7439 17.0036 17.6472C12.8681 15.5506 9.21963 12.6079 6.29503 9.00998C5.29503 10.735 4.72003 12.735 4.72003 14.865C4.71891 16.7825 5.19111 18.6706 6.09473 20.3618C6.99834 22.053 8.30543 23.4951 9.90003 24.56C8.05072 24.5011 6.24221 24.0014 4.62503 23.1025V23.2525C4.62484 25.9418 5.55511 28.5484 7.25799 30.63C8.96086 32.7115 11.3315 34.1398 13.9675 34.6725C12.252 35.1368 10.4534 35.2052 8.70753 34.8725C9.45127 37.1865 10.9 39.21 12.8509 40.6598C14.8019 42.1095 17.1573 42.9129 19.5875 42.9575C15.4621 46.196 10.3672 47.9527 5.12253 47.945C4.19348 47.9452 3.26522 47.891 2.34253 47.7825C7.66622 51.2054 13.8634 53.022 20.1925 53.015C41.6175 53.015 53.33 35.27 53.33 19.88C53.33 19.38 53.3175 18.875 53.295 18.375C55.5733 16.7274 57.5398 14.6872 59.1025 12.35L59.1075 12.3425Z" fill="white"/>
</svg>
